{"scene":0,"scenes":[{"nodes":[0,1,2,3,4,5,6,7,8,9,10]}],"asset":{"version":"2.0","generator":"https://github.com/mikedh/trimesh"},"accessors":[{"componentType":5125,"type":"SCALAR","bufferView":0,"count":36,"max":[7],"min":[0]},{"componentType":5126,"type":"VEC3","byteOffset":0,"bufferView":1,"count":8,"max":[0.800000011920929,0.03999999910593033,2.4000000953674316],"min":[-0.800000011920929,-0.03999999910593033,0.0]},{"componentType":5121,"normalized":true,"type":"VEC4","byteOffset":0,"bufferView":2,"count":8,"max":[139,90,43,255],"min":[139,90,43,255]},{"componentType":5126,"type":"VEC3","byteOffset":0,"bufferView":3,"count":8,"max":[0.800000011920929,0.05999999865889549,0.3499999940395355],"min":[-0.800000011920929,0.03999999910593033,0.25]},{"componentType":5121,"normalized":true,"type":"VEC4","byteOffset":0,"bufferView":4,"count":8,"max":[92,64,51,255],"min":[92,64,51,255]},{"componentType":5126,"type":"VEC3","byteOffset":0,"bufferView":5,"count":8,"max":[0.800000011920929,0.05999999865889549,0.949999988079071],"min":[-0.800000011920929,0.03999999910593033,0.8500000238418579]},{"componentType":5126,"type":"VEC3","byteOffset":0,"bufferView":6,"count":8,"max":[0.800000011920929,0.05999999865889549,1.5499999523162842],"min":[-0.800000011920929,0.03999999910593033,1.4500000476837158]},{"componentType":5126,"type":"VEC3","byteOffset":0,"bufferView":7,"count":8,"max":[0.800000011920929,0.05999999865889549,2.1500000953674316],"min":[-0.800000011920929,0.03999999910593033,2.049999952316284]},{"componentType":5126,"type":"VEC3","byteOffset":0,"bufferView":8,"count":8,"max":[-0.7400000095367432,0.1599999964237213,2.4000000953674316],"min":[-0.800000011920929,0.0,0.0]},{"componentType":5121,"normalized":true,"type":"VEC4","byteOffset":0,"bufferView":9,"count":8,"max":[101,67,33,255],"min":[101,67,33,255]},{"componentType":5126,"type":"VEC3","byteOffset":0,"bufferView":10,"count":8,"max":[0.800000011920929,0.1599999964237213,2.4000000953674316],"min":[0.7400000095367432,0.0,0.0]},{"componentType":5125,"type":"SCALAR","bufferView":11,"count":144,"max":[25],"min":[0]},{"componentType":5126,"type":"VEC3","byteOffset":0,"bufferView":12,"count":26,"max":[-0.574999988079071,0.05000000074505806,0.05000000074505806],"min":[-0.824999988079071,-0.05000000074505806,-0.05000000074505806]},{"componentType":5121,"normalized":true,"type":"VEC4","byteOffset":0,"bufferView":13,"count":26,"max":[45,45,45,255],"min":[45,45,45,255]},{"componentType":5126,"type":"VEC3","byteOffset":0,"bufferView":14,"count":26,"max":[0.824999988079071,0.05000000074505806,0.05000000074505806],"min":[0.574999988079071,-0.05000000074505806,-0.05000000074505806]},{"componentType":5125,"type":"SCALAR","bufferView":15,"count":384,"max":[63],"min":[0]},{"componentType":5126,"type":"VEC3","byteOffset":0,"bufferView":16,"count":64,"max":[-0.5899999737739563,0.07000000029802322,2.309999942779541],"min":[-0.7099999785423279,0.05000000074505806,2.190000057220459]},{"componentType":5121,"normalized":true,"type":"VEC4","byteOffset":0,"bufferView":17,"count":64,"max":[45,45,45,255],"min":[45,45,45,255]},{"componentType":5126,"type":"VEC3","byteOffset":0,"bufferView":18,"count":64,"max":[0.7099999785423279,0.07000000029802322,2.309999942779541],"min":[0.5899999737739563,0.05000000074505806,2.190000057220459]}],"meshes":[{"name":"DrawbridgePlank","extras":{"units":"meters","from_gltf_primitive":false,"shape":"box","extents":[1.6,0.08,2.4]},"primitives":[{"attributes":{"POSITION":1,"COLOR_0":2},"indices":0,"mode":4}]},{"name":"geometry_1","extras":{"units":"meters","from_gltf_primitive":false,"shape":"box","extents":[1.6,0.02,0.1]},"primitives":[{"attributes":{"POSITION":3,"COLOR_0":4},"indices":0,"mode":4}]},{"name":"geometry_2","extras":{"units":"meters","from_gltf_primitive":false,"shape":"box","extents":[1.6,0.02,0.1]},"primitives":[{"attributes":{"POSITION":5,"COLOR_0":4},"indices":0,"mode":4}]},{"name":"geometry_3","extras":{"units":"meters","from_gltf_primitive":false,"shape":"box","extents":[1.6,0.02,0.1]},"primitives":[{"attributes":{"POSITION":6,"COLOR_0":4},"indices":0,"mode":4}]},{"name":"geometry_4","extras":{"units":"meters","from_gltf_primitive":false,"shape":"box","extents":[1.6,0.02,0.1]},"primitives":[{"attributes":{"POSITION":7,"COLOR_0":4},"indices":0,"mode":4}]},{"name":"geometry_5","extras":{"units":"meters","from_gltf_primitive":false,"shape":"box","extents":[0.06,0.16,2.4]},"primitives":[{"attributes":{"POSITION":8,"COLOR_0":9},"indices":0,"mode":4}]},{"name":"geometry_6","extras":{"units":"meters","from_gltf_primitive":false,"shape":"box","extents":[0.06,0.16,2.4]},"primitives":[{"attributes":{"POSITION":10,"COLOR_0":9},"indices":0,"mode":4}]},{"name":"geometry_7","extras":{"units":"meters","from_gltf_primitive":false,"shape":"cylinder","height":0.25,"radius":0.05,"processed":true},"primitives":[{"attributes":{"POSITION":12,"COLOR_0":13},"indices":11,"mode":4}]},{"name":"geometry_8","extras":{"units":"meters","from_gltf_primitive":false,"shape":"cylinder","height":0.25,"radius":0.05,"processed":true},"primitives":[{"attributes":{"POSITION":14,"COLOR_0":13},"indices":11,"mode":4}]},{"name":"geometry_9","extras":{"units":"meters","from_gltf_primitive":false,"shape":"annulus","r_min":0.04,"r_max":0.06,"height":0.02,"processed":true},"primitives":[{"attributes":{"POSITION":16,"COLOR_0":17},"indices":15,"mode":4}]},{"name":"geometry_10","extras":{"units":"meters","from_gltf_primitive":false,"shape":"annulus","r_min":0.04,"r_max":0.06,"height":0.02,"processed":true},"primitives":[{"attributes":{"POSITION":18,"COLOR_0":17},"indices":15,"mode":4}]}],"nodes":[{"name":"ChainLoop_R","mesh":10},{"name":"ChainLoop_L","mesh":9},{"name":"Hinge_R","mesh":8},{"name":"Hinge_L","mesh":7},{"name":"SideRail_R","mesh":6},{"name":"SideRail_L","mesh":5},{"name":"CrossBeam_4","mesh":4},{"name":"CrossBeam_3","mesh":3},{"name":"CrossBeam_2","mesh":2},{"name":"CrossBeam_1","mesh":1},{"name":"Object_58","mesh":0}],"buffers":[{"uri":"data:application/octet-stream;base64,","byteLength":5544}],"bufferViews":[{"buffer":0,"byteOffset":0,"byteLength":144},{"buffer":0,"byteOffset":144,"byteLength":96},{"buffer":0,"byteOffset":240,"byteLength":32},{"buffer":0,"byteOffset":272,"byteLength":96},{"buffer":0,"byteOffset":368,"byteLength":32},{"buffer":0,"byteOffset":400,"byteLength":96},{"buffer":0,"byteOffset":496,"byteLength":96},{"buffer":0,"byteOffset":592,"byteLength":96},{"buffer":0,"byteOffset":688,"byteLength":96},{"buffer":0,"byteOffset":784,"byteLength":32},{"buffer":0,"byteOffset":816,"byteLength":96},{"buffer":0,"byteOffset":912,"byteLength":576},{"buffer":0,"byteOffset":1488,"byteLength":312},{"buffer":0,"byteOffset":1800,"byteLength":104},{"buffer":0,"byteOffset":1904,"byteLength":312},{"buffer":0,"byteOffset":2216,"byteLength":1536},{"buffer":0,"byteOffset":3752,"byteLength":768},{"buffer":0,"byteOffset":4520,"byteLength":256},{"buffer":0,"byteOffset":4776,"byteLength":768}]}